<svg id="Livello_1" data-name="Livello 1" xmlns="http://www.w3.org/2000/svg" viewBox="0 0 1024 512"><defs><style>.cls-1{fill:#575756;}.cls-2{fill:#fff;}</style></defs><rect class="cls-1" width="1024" height="512"/><path class="cls-2" d="M410.08,250.66a.4.4,0,0,1-.29-.11.38.38,0,0,1-.11-.29V240h-3.34a.37.37,0,0,1-.29-.12.36.36,0,0,1-.11-.28v-.73a.41.41,0,0,1,.11-.31.4.4,0,0,1,.29-.11h8.38a.41.41,0,0,1,.3.11.41.41,0,0,1,.12.31v.73a.36.36,0,0,1-.12.28.38.38,0,0,1-.3.12H411.4v10.22a.38.38,0,0,1-.12.29.41.41,0,0,1-.3.11Z" transform="translate(0 0)"/><path class="cls-2" d="M416.93,250.66a.42.42,0,0,1-.29-.11.38.38,0,0,1-.11-.29V238.72a.36.36,0,0,1,.11-.29.38.38,0,0,1,.29-.11h.87a.36.36,0,0,1,.29.11.4.4,0,0,1,.11.29v4.05a3.52,3.52,0,0,1,1.14-1,3.7,3.7,0,0,1,1.73-.36,3.56,3.56,0,0,1,1.92.49,3.23,3.23,0,0,1,1.2,1.38,4.79,4.79,0,0,1,.41,2v4.9a.42.42,0,0,1-.11.29.4.4,0,0,1-.29.11h-.87a.4.4,0,0,1-.29-.11.38.38,0,0,1-.11-.29v-4.81a2.8,2.8,0,0,0-.6-1.91,2.15,2.15,0,0,0-1.73-.69,2.3,2.3,0,0,0-1.74.69,2.64,2.64,0,0,0-.66,1.91v4.81a.42.42,0,0,1-.11.29.4.4,0,0,1-.29.11Z" transform="translate(0 0)"/><path class="cls-2" d="M427.36,239.93a.38.38,0,0,1-.29-.11.42.42,0,0,1-.11-.29v-.94a.39.39,0,0,1,.11-.28.38.38,0,0,1,.29-.12h1.1a.41.41,0,0,1,.4.4v.94a.38.38,0,0,1-.12.29.36.36,0,0,1-.28.11Zm.14,10.73a.38.38,0,0,1-.4-.4V242a.38.38,0,0,1,.4-.4h.83a.38.38,0,0,1,.28.11.42.42,0,0,1,.11.29v8.24a.42.42,0,0,1-.11.29.38.38,0,0,1-.28.11Z" transform="translate(0 0)"/><path class="cls-2" d="M434.44,250.84a5.11,5.11,0,0,1-1.67-.25,3.73,3.73,0,0,1-1.13-.59,2.75,2.75,0,0,1-.65-.69,1.36,1.36,0,0,1-.24-.56.32.32,0,0,1,.12-.3.48.48,0,0,1,.28-.1h.77a.35.35,0,0,1,.16,0,.45.45,0,0,1,.17.14,4.65,4.65,0,0,0,.5.49,2.32,2.32,0,0,0,.69.4,3.32,3.32,0,0,0,2.48-.18,1.1,1.1,0,0,0,.57-1,1,1,0,0,0-.24-.7,2,2,0,0,0-.83-.47,14.78,14.78,0,0,0-1.64-.43,5.94,5.94,0,0,1-1.66-.6,2.19,2.19,0,0,1-.86-.85,2.33,2.33,0,0,1-.27-1.13,2.26,2.26,0,0,1,.39-1.24,2.77,2.77,0,0,1,1.12-1,3.93,3.93,0,0,1,1.85-.38,4.75,4.75,0,0,1,1.55.22,3.43,3.43,0,0,1,1.06.57,2.53,2.53,0,0,1,.62.67,1.27,1.27,0,0,1,.23.55.34.34,0,0,1-.1.29.38.38,0,0,1-.28.11h-.73a.31.31,0,0,1-.2-.05.79.79,0,0,1-.15-.12,4.18,4.18,0,0,0-.41-.45,1.82,1.82,0,0,0-.61-.38,2.68,2.68,0,0,0-1-.14,2,2,0,0,0-1.3.36,1.15,1.15,0,0,0-.44.92,1,1,0,0,0,.19.59,1.58,1.58,0,0,0,.73.47,13.88,13.88,0,0,0,1.6.46,6.06,6.06,0,0,1,1.81.6,2.46,2.46,0,0,1,.94.89,2.33,2.33,0,0,1,.28,1.17,2.22,2.22,0,0,1-.43,1.33,2.83,2.83,0,0,1-1.25,1A5.1,5.1,0,0,1,434.44,250.84Z" transform="translate(0 0)"/><path class="cls-2" d="M444.7,239.93a.36.36,0,0,1-.29-.11.38.38,0,0,1-.11-.29v-.94a.36.36,0,0,1,.11-.28.37.37,0,0,1,.29-.12h1.09a.38.38,0,0,1,.29.12.39.39,0,0,1,.11.28v.94a.42.42,0,0,1-.11.29.38.38,0,0,1-.29.11Zm.14,10.73a.4.4,0,0,1-.29-.11.38.38,0,0,1-.11-.29V242a.38.38,0,0,1,.11-.29.4.4,0,0,1,.29-.11h.83a.38.38,0,0,1,.28.11.41.41,0,0,1,.1.29v8.24a.41.41,0,0,1-.1.29.38.38,0,0,1-.28.11Z" transform="translate(0 0)"/><path class="cls-2" d="M451.77,250.84a5.15,5.15,0,0,1-1.67-.25A3.86,3.86,0,0,1,449,250a2.94,2.94,0,0,1-.65-.69,1.46,1.46,0,0,1-.23-.56.32.32,0,0,1,.12-.3.44.44,0,0,1,.28-.1h.76a.4.4,0,0,1,.17,0s.09.06.16.14a4.78,4.78,0,0,0,.51.49,2.15,2.15,0,0,0,.68.4,3,3,0,0,0,1,.16,2.89,2.89,0,0,0,1.46-.34,1.11,1.11,0,0,0,.58-1,1,1,0,0,0-.24-.7,2.08,2.08,0,0,0-.83-.47,14.46,14.46,0,0,0-1.65-.43,6,6,0,0,1-1.65-.6,2.29,2.29,0,0,1-.87-.85,2.44,2.44,0,0,1-.26-1.13,2.33,2.33,0,0,1,.38-1.24,2.84,2.84,0,0,1,1.12-1,4,4,0,0,1,1.86-.38,4.64,4.64,0,0,1,1.54.22,3.49,3.49,0,0,1,1.07.57,2.91,2.91,0,0,1,.62.67,1.27,1.27,0,0,1,.23.55.34.34,0,0,1-.11.29.37.37,0,0,1-.28.11H454a.33.33,0,0,1-.2-.05.53.53,0,0,1-.14-.12,5.57,5.57,0,0,0-.41-.45,1.92,1.92,0,0,0-.61-.38,2.71,2.71,0,0,0-1-.14,2,2,0,0,0-1.31.36,1.14,1.14,0,0,0-.43.92,1,1,0,0,0,.19.59,1.58,1.58,0,0,0,.73.47,13.3,13.3,0,0,0,1.6.46,6.16,6.16,0,0,1,1.81.6,2.19,2.19,0,0,1,1.22,2.06,2.29,2.29,0,0,1-.43,1.33,2.89,2.89,0,0,1-1.25,1A5.16,5.16,0,0,1,451.77,250.84Z" transform="translate(0 0)"/><path class="cls-2" d="M464.94,250.66a3,3,0,0,1-1.59-.37,2.14,2.14,0,0,1-.88-1.06,4.25,4.25,0,0,1-.28-1.63V243h-1.36a.39.39,0,0,1-.28-.11.38.38,0,0,1-.12-.29V242a.38.38,0,0,1,.12-.29.39.39,0,0,1,.28-.11h1.36v-2.9a.4.4,0,0,1,.11-.29.38.38,0,0,1,.29-.11h.82a.36.36,0,0,1,.28.11.37.37,0,0,1,.12.29v2.9H466a.42.42,0,0,1,.29.11.38.38,0,0,1,.11.29v.59a.38.38,0,0,1-.11.29.42.42,0,0,1-.29.11h-2.15v4.47a2.52,2.52,0,0,0,.28,1.29,1,1,0,0,0,1,.47h1.06a.36.36,0,0,1,.28.11.37.37,0,0,1,.12.29v.62a.38.38,0,0,1-.12.29.39.39,0,0,1-.28.11Z" transform="translate(0 0)"/><path class="cls-2" d="M468.62,250.66a.39.39,0,0,1-.28-.11.38.38,0,0,1-.12-.29V238.72a.37.37,0,0,1,.12-.29.36.36,0,0,1,.28-.11h.87a.37.37,0,0,1,.3.11.39.39,0,0,1,.1.29v4.05a3.36,3.36,0,0,1,2.87-1.32,3.51,3.51,0,0,1,1.92.49,3.11,3.11,0,0,1,1.2,1.38,4.64,4.64,0,0,1,.41,2v4.9a.36.36,0,0,1-.4.4H475a.39.39,0,0,1-.28-.11.38.38,0,0,1-.12-.29v-4.81a2.8,2.8,0,0,0-.59-1.91,2.15,2.15,0,0,0-1.74-.69,2.3,2.3,0,0,0-1.74.69,2.64,2.64,0,0,0-.66,1.91v4.81a.36.36,0,0,1-.4.4Z" transform="translate(0 0)"/><path class="cls-2" d="M482.4,250.84a3.77,3.77,0,0,1-2.86-1.11,4.57,4.57,0,0,1-1.16-3c0-.15,0-.34,0-.58s0-.43,0-.58a5.12,5.12,0,0,1,.57-2.17,3.65,3.65,0,0,1,1.38-1.43,4.63,4.63,0,0,1,4.28.05,3.59,3.59,0,0,1,1.37,1.58,5.81,5.81,0,0,1,.47,2.4v.3a.38.38,0,0,1-.12.3.39.39,0,0,1-.28.1h-6v.16a3.7,3.7,0,0,0,.31,1.33,2.63,2.63,0,0,0,.8,1,2.11,2.11,0,0,0,1.26.38,2.48,2.48,0,0,0,1-.19,2.74,2.74,0,0,0,.68-.43,2,2,0,0,0,.34-.35c.11-.16.19-.25.25-.27a.63.63,0,0,1,.28-.05h.83a.41.41,0,0,1,.29.1.28.28,0,0,1,.09.27,1.35,1.35,0,0,1-.27.63,3.51,3.51,0,0,1-.75.74,4.5,4.5,0,0,1-1.18.6A4.94,4.94,0,0,1,482.4,250.84ZM480,245.48h4.77v0a3.23,3.23,0,0,0-.29-1.39,2.31,2.31,0,0,0-.83-1,2.26,2.26,0,0,0-1.28-.35,2.16,2.16,0,0,0-2.09,1.32,3.23,3.23,0,0,0-.28,1.39Z" transform="translate(0 0)"/><path class="cls-2" d="M496.1,250.84a3.79,3.79,0,0,1-1.65-.34,3.15,3.15,0,0,1-1.14-.92,4,4,0,0,1-.66-1.33,6.78,6.78,0,0,1-.26-1.59c0-.18,0-.36,0-.52s0-.34,0-.52a6.69,6.69,0,0,1,.26-1.57,4,4,0,0,1,.66-1.33,2.9,2.9,0,0,1,1.14-.93,3.65,3.65,0,0,1,1.65-.34,3.6,3.6,0,0,1,1.7.36,3.73,3.73,0,0,1,1.12.91v-4a.36.36,0,0,1,.11-.29.36.36,0,0,1,.28-.11h.84a.38.38,0,0,1,.29.11.4.4,0,0,1,.11.29v11.54a.38.38,0,0,1-.4.4h-.78a.36.36,0,0,1-.4-.4v-.73a3.59,3.59,0,0,1-1.13.93A3.67,3.67,0,0,1,496.1,250.84Zm.36-1.41a2.25,2.25,0,0,0,1.39-.4,2.56,2.56,0,0,0,.79-1,3.71,3.71,0,0,0,.28-1.26c0-.19,0-.41,0-.67s0-.48,0-.67a3.2,3.2,0,0,0-.29-1.2,2.43,2.43,0,0,0-.8-1,2.64,2.64,0,0,0-2.78,0,2.18,2.18,0,0,0-.74,1,4.63,4.63,0,0,0-.26,1.37,8.51,8.51,0,0,0,0,1,4.62,4.62,0,0,0,.26,1.36,2.21,2.21,0,0,0,.74,1A2.31,2.31,0,0,0,496.46,249.43Z" transform="translate(0 0)"/><path class="cls-2" d="M506.74,250.84a3.77,3.77,0,0,1-2.85-1.11,4.53,4.53,0,0,1-1.17-3c0-.15,0-.34,0-.58s0-.43,0-.58a5.12,5.12,0,0,1,.58-2.17,3.52,3.52,0,0,1,1.38-1.43,4,4,0,0,1,2.06-.5A4.15,4.15,0,0,1,509,242a3.57,3.57,0,0,1,1.36,1.58,5.65,5.65,0,0,1,.47,2.4v.3a.36.36,0,0,1-.4.4h-6v.16a3.5,3.5,0,0,0,.31,1.33,2.46,2.46,0,0,0,.8,1,2.08,2.08,0,0,0,1.25.38,2.45,2.45,0,0,0,1-.19,2.57,2.57,0,0,0,.68-.43,2.22,2.22,0,0,0,.35-.35q.15-.24.24-.27a.63.63,0,0,1,.28-.05h.84a.39.39,0,0,1,.28.1.28.28,0,0,1,.1.27,1.38,1.38,0,0,1-.28.63,3.1,3.1,0,0,1-.75.74,4.35,4.35,0,0,1-1.18.6A4.89,4.89,0,0,1,506.74,250.84Zm-2.36-5.36h4.76v0a3.23,3.23,0,0,0-.29-1.39,2.19,2.19,0,0,0-2.11-1.32,2.23,2.23,0,0,0-1.28.35,2.34,2.34,0,0,0-.81,1,3.38,3.38,0,0,0-.27,1.39Z" transform="translate(0 0)"/><path class="cls-2" d="M514.1,250.66a.4.4,0,0,1-.29-.11.38.38,0,0,1-.11-.29V243h-1.48a.38.38,0,0,1-.4-.4V242a.38.38,0,0,1,.4-.4h1.48v-.87a3.81,3.81,0,0,1,.29-1.56,2.16,2.16,0,0,1,1-1,3.61,3.61,0,0,1,1.75-.37h1a.35.35,0,0,1,.28.12.39.39,0,0,1,.1.28v.6a.39.39,0,0,1-.1.28.35.35,0,0,1-.28.12h-1a1.28,1.28,0,0,0-1.11.42,2.13,2.13,0,0,0-.3,1.23v.78h2.25a.37.37,0,0,1,.27.11.42.42,0,0,1,.11.29v.59a.42.42,0,0,1-.11.29.37.37,0,0,1-.27.11h-2.25v7.25a.38.38,0,0,1-.11.29.42.42,0,0,1-.29.11Z" transform="translate(0 0)"/><path class="cls-2" d="M521.89,250.84a3.63,3.63,0,0,1-1.59-.35,3.1,3.1,0,0,1-1.14-.94,2.2,2.2,0,0,1-.44-1.34,2.24,2.24,0,0,1,1-1.91,5.47,5.47,0,0,1,2.53-.94l2.6-.37v-.5a1.76,1.76,0,0,0-.48-1.31,2.19,2.19,0,0,0-1.56-.46,2.26,2.26,0,0,0-1.26.31,1.67,1.67,0,0,0-.67.8.37.37,0,0,1-.36.26h-.79a.35.35,0,0,1-.28-.11.39.39,0,0,1-.1-.27,1.53,1.53,0,0,1,.2-.65,2.57,2.57,0,0,1,.62-.74,3.43,3.43,0,0,1,1.07-.62,4.35,4.35,0,0,1,1.59-.25,5,5,0,0,1,1.75.27,2.9,2.9,0,0,1,1.13.72,2.76,2.76,0,0,1,.59,1,3.91,3.91,0,0,1,.18,1.17v5.63a.38.38,0,0,1-.4.4h-.8a.36.36,0,0,1-.4-.4v-.75a3,3,0,0,1-.61.62,3.33,3.33,0,0,1-1,.51A4.37,4.37,0,0,1,521.89,250.84Zm.36-1.31a2.87,2.87,0,0,0,1.31-.3,2.25,2.25,0,0,0,.93-.95,3.53,3.53,0,0,0,.34-1.62v-.48l-2,.29a4.68,4.68,0,0,0-1.86.58,1.22,1.22,0,0,0-.63,1,1.2,1.2,0,0,0,.29.81,1.79,1.79,0,0,0,.73.48A2.8,2.8,0,0,0,522.25,249.53Z" transform="translate(0 0)"/><path class="cls-2" d="M532.34,250.84a3.43,3.43,0,0,1-1.89-.5,3,3,0,0,1-1.17-1.38,4.86,4.86,0,0,1-.4-2V242a.38.38,0,0,1,.11-.29.4.4,0,0,1,.29-.11h.87a.39.39,0,0,1,.28.11.38.38,0,0,1,.12.29v4.82c0,1.72.75,2.59,2.26,2.59a2.27,2.27,0,0,0,1.73-.69,2.67,2.67,0,0,0,.65-1.9V242a.38.38,0,0,1,.4-.4h.85a.36.36,0,0,1,.4.4v8.24a.36.36,0,0,1-.4.4h-.8a.44.44,0,0,1-.29-.11.42.42,0,0,1-.11-.29v-.76a3.55,3.55,0,0,1-1.14,1A3.68,3.68,0,0,1,532.34,250.84Z" transform="translate(0 0)"/><path class="cls-2" d="M539.85,250.66a.38.38,0,0,1-.4-.4V238.72a.4.4,0,0,1,.11-.29.38.38,0,0,1,.29-.11h.82a.36.36,0,0,1,.29.11.4.4,0,0,1,.11.29v11.54a.42.42,0,0,1-.11.29.4.4,0,0,1-.29.11Z" transform="translate(0 0)"/><path class="cls-2" d="M547.19,250.66a3,3,0,0,1-1.59-.37,2.14,2.14,0,0,1-.88-1.06,4.25,4.25,0,0,1-.28-1.63V243h-1.36a.39.39,0,0,1-.28-.11.38.38,0,0,1-.12-.29V242a.38.38,0,0,1,.12-.29.39.39,0,0,1,.28-.11h1.36v-2.9a.4.4,0,0,1,.11-.29.38.38,0,0,1,.29-.11h.82a.36.36,0,0,1,.28.11.37.37,0,0,1,.12.29v2.9h2.15a.42.42,0,0,1,.29.11.38.38,0,0,1,.11.29v.59a.38.38,0,0,1-.11.29.42.42,0,0,1-.29.11h-2.15v4.47a2.63,2.63,0,0,0,.27,1.29,1.08,1.08,0,0,0,1,.47h1.06a.36.36,0,0,1,.28.11.37.37,0,0,1,.12.29v.62a.38.38,0,0,1-.12.29.39.39,0,0,1-.28.11Z" transform="translate(0 0)"/><path class="cls-2" d="M559.19,250.84a3.61,3.61,0,0,1-1.74-.38,3.34,3.34,0,0,1-1.12-.93v.73a.38.38,0,0,1-.11.29.4.4,0,0,1-.29.11h-.8a.39.39,0,0,1-.28-.11.38.38,0,0,1-.12-.29V238.72a.37.37,0,0,1,.12-.29.36.36,0,0,1,.28-.11H556a.35.35,0,0,1,.29.11.4.4,0,0,1,.11.29v4a3.5,3.5,0,0,1,1.12-.91,3.62,3.62,0,0,1,1.7-.36,3.7,3.7,0,0,1,1.66.34,3.09,3.09,0,0,1,1.13.93,4.38,4.38,0,0,1,.67,1.33,5.79,5.79,0,0,1,.24,1.57c0,.18,0,.36,0,.52s0,.34,0,.52a5.87,5.87,0,0,1-.24,1.59,4.38,4.38,0,0,1-.67,1.33,3.39,3.39,0,0,1-1.13.92A3.84,3.84,0,0,1,559.19,250.84Zm-.37-1.41a2.3,2.3,0,0,0,1.42-.39,2.21,2.21,0,0,0,.74-1,5,5,0,0,0,.26-1.36c0-.34,0-.68,0-1a5,5,0,0,0-.26-1.37,2.18,2.18,0,0,0-.74-1,2.24,2.24,0,0,0-1.42-.4,2.25,2.25,0,0,0-2.16,1.36,3,3,0,0,0-.29,1.2c0,.19,0,.41,0,.67s0,.48,0,.67a3.73,3.73,0,0,0,.29,1.26,2.3,2.3,0,0,0,.78,1A2.26,2.26,0,0,0,558.82,249.43Z" transform="translate(0 0)"/><path class="cls-2" d="M567.58,250.84a3.59,3.59,0,0,1-1.58-.35,3.14,3.14,0,0,1-1.15-.94,2.19,2.19,0,0,1-.43-1.34,2.24,2.24,0,0,1,1-1.91,5.55,5.55,0,0,1,2.54-.94l2.59-.37v-.5a1.76,1.76,0,0,0-.48-1.31,2.14,2.14,0,0,0-1.55-.46,2.26,2.26,0,0,0-1.26.31,1.67,1.67,0,0,0-.67.8.37.37,0,0,1-.37.26h-.78a.38.38,0,0,1-.29-.11.44.44,0,0,1-.09-.27,1.4,1.4,0,0,1,.2-.65,2.69,2.69,0,0,1,.61-.74,3.55,3.55,0,0,1,1.07-.62,4.42,4.42,0,0,1,1.59-.25,5,5,0,0,1,1.76.27,2.78,2.78,0,0,1,1.12.72,2.63,2.63,0,0,1,.59,1,3.63,3.63,0,0,1,.19,1.17v5.63a.38.38,0,0,1-.12.29.39.39,0,0,1-.28.11H571a.36.36,0,0,1-.4-.4v-.75a3.23,3.23,0,0,1-.61.62,3.47,3.47,0,0,1-1,.51A4.39,4.39,0,0,1,567.58,250.84Zm.37-1.31a2.83,2.83,0,0,0,1.3-.3,2.14,2.14,0,0,0,.93-.95,3.41,3.41,0,0,0,.34-1.62v-.48l-2,.29a4.79,4.79,0,0,0-1.86.58,1.23,1.23,0,0,0-.62,1,1.15,1.15,0,0,0,.29.81,1.79,1.79,0,0,0,.73.48A2.8,2.8,0,0,0,568,249.53Z" transform="translate(0 0)"/><path class="cls-2" d="M575.06,250.66a.38.38,0,0,1-.4-.4V242a.38.38,0,0,1,.4-.4h.82a.44.44,0,0,1,.29.11.42.42,0,0,1,.11.29v.76a3.56,3.56,0,0,1,1.14-1,3.65,3.65,0,0,1,1.76-.37,3.51,3.51,0,0,1,1.92.49,3,3,0,0,1,1.19,1.38,4.79,4.79,0,0,1,.4,2v4.9a.41.41,0,0,1-.1.29.38.38,0,0,1-.28.11h-.87a.39.39,0,0,1-.28-.11.38.38,0,0,1-.12-.29v-4.81a2.8,2.8,0,0,0-.59-1.91,2.15,2.15,0,0,0-1.74-.69,2.27,2.27,0,0,0-1.73.69,2.68,2.68,0,0,0-.65,1.91v4.81a.38.38,0,0,1-.4.4Z" transform="translate(0 0)"/><path class="cls-2" d="M585.6,250.66a.38.38,0,0,1-.4-.4V242a.38.38,0,0,1,.4-.4h.82a.39.39,0,0,1,.28.11.38.38,0,0,1,.12.29v.76a3.56,3.56,0,0,1,1.14-1,3.62,3.62,0,0,1,1.76-.37,3.56,3.56,0,0,1,1.92.49,3,3,0,0,1,1.19,1.38,4.79,4.79,0,0,1,.4,2v4.9a.41.41,0,0,1-.1.29.38.38,0,0,1-.28.11H592a.38.38,0,0,1-.4-.4v-4.81a2.85,2.85,0,0,0-.59-1.91,2.15,2.15,0,0,0-1.74-.69,2.27,2.27,0,0,0-1.73.69,2.68,2.68,0,0,0-.65,1.91v4.81a.38.38,0,0,1-.12.29.39.39,0,0,1-.28.11Z" transform="translate(0 0)"/><path class="cls-2" d="M599.34,250.84a3.77,3.77,0,0,1-2.86-1.11,4.57,4.57,0,0,1-1.16-3c0-.15,0-.34,0-.58s0-.43,0-.58a5.27,5.27,0,0,1,.57-2.17,3.61,3.61,0,0,1,1.39-1.43,4,4,0,0,1,2.06-.5,4.09,4.09,0,0,1,2.21.55,3.59,3.59,0,0,1,1.37,1.58,5.81,5.81,0,0,1,.47,2.4v.3a.38.38,0,0,1-.12.3.39.39,0,0,1-.28.1h-6v.16a3.7,3.7,0,0,0,.31,1.33,2.63,2.63,0,0,0,.8,1,2.11,2.11,0,0,0,1.26.38,2.48,2.48,0,0,0,1-.19,2.74,2.74,0,0,0,.68-.43,2.79,2.79,0,0,0,.35-.35q.15-.24.24-.27a.63.63,0,0,1,.28-.05h.83a.41.41,0,0,1,.29.1.28.28,0,0,1,.09.27,1.35,1.35,0,0,1-.27.63,3.51,3.51,0,0,1-.75.74,4.5,4.5,0,0,1-1.18.6A4.94,4.94,0,0,1,599.34,250.84ZM597,245.48h4.77v0a3.23,3.23,0,0,0-.29-1.39,2.31,2.31,0,0,0-.83-1,2.26,2.26,0,0,0-1.28-.35,2.16,2.16,0,0,0-2.09,1.32,3.23,3.23,0,0,0-.28,1.39Z" transform="translate(0 0)"/><path class="cls-2" d="M605.87,250.66a.39.39,0,0,1-.28-.11.38.38,0,0,1-.12-.29V242a.41.41,0,0,1,.12-.3.36.36,0,0,1,.28-.12h.8a.41.41,0,0,1,.42.42v.76a2.15,2.15,0,0,1,1-.88,3.25,3.25,0,0,1,1.46-.3h.69a.38.38,0,0,1,.28.11.42.42,0,0,1,.11.29v.71a.38.38,0,0,1-.39.39h-1a2,2,0,0,0-1.48.54,2,2,0,0,0-.54,1.49v5.11a.38.38,0,0,1-.12.29.44.44,0,0,1-.29.11Z" transform="translate(0 0)"/><path class="cls-2" d="M611.42,250.66a.44.44,0,0,1-.29-.11.42.42,0,0,1-.11-.29V249a.42.42,0,0,1,.11-.29.44.44,0,0,1,.29-.11h1.25a.42.42,0,0,1,.29.11.38.38,0,0,1,.11.29v1.25a.38.38,0,0,1-.11.29.42.42,0,0,1-.29.11Z" transform="translate(0 0)"/><path class="cls-2" d="M396.48,271.7a5.46,5.46,0,0,1-2.6-.57,3.94,3.94,0,0,1-1.64-1.62,5.65,5.65,0,0,1-.63-2.45c0-.51,0-1.05,0-1.63s0-1.12,0-1.64a5.52,5.52,0,0,1,.63-2.43,3.92,3.92,0,0,1,1.65-1.6,5.36,5.36,0,0,1,2.59-.58,6,6,0,0,1,2.14.35,4.72,4.72,0,0,1,1.48.88,3.76,3.76,0,0,1,.87,1.1,2.61,2.61,0,0,1,.31,1,.27.27,0,0,1-.09.25.37.37,0,0,1-.28.1h-1a.38.38,0,0,1-.26-.07.66.66,0,0,1-.14-.24,2.91,2.91,0,0,0-.52-.89,2.63,2.63,0,0,0-1-.72,3.62,3.62,0,0,0-1.54-.29,3.21,3.21,0,0,0-2.22.75,3.33,3.33,0,0,0-.91,2.47q-.06,1.55,0,3.09a3.37,3.37,0,0,0,.92,2.5,3.26,3.26,0,0,0,2.23.76,3.91,3.91,0,0,0,1.64-.34,2.59,2.59,0,0,0,1.14-1.06,3.48,3.48,0,0,0,.41-1.8v-.74h-2.6a.36.36,0,0,1-.29-.11.37.37,0,0,1-.11-.3v-.56a.39.39,0,0,1,.4-.42H401a.37.37,0,0,1,.29.12.41.41,0,0,1,.11.3V267a5.09,5.09,0,0,1-.59,2.49,4.05,4.05,0,0,1-1.69,1.64A5.65,5.65,0,0,1,396.48,271.7Z" transform="translate(0 0)"/><path class="cls-2" d="M407.38,271.7a4.38,4.38,0,0,1-2.21-.5,3.37,3.37,0,0,1-1.35-1.4,4.81,4.81,0,0,1-.53-2c0-.2,0-.45,0-.76s0-.55,0-.74a4.89,4.89,0,0,1,.53-2.05,3.46,3.46,0,0,1,1.37-1.39,5,5,0,0,1,4.38,0,3.46,3.46,0,0,1,1.37,1.39,4.89,4.89,0,0,1,.53,2.05c0,.19,0,.43,0,.74s0,.56,0,.76a5,5,0,0,1-.52,2,3.46,3.46,0,0,1-1.36,1.4A4.38,4.38,0,0,1,407.38,271.7Zm0-1.34a2.23,2.23,0,0,0,1.72-.68,3.05,3.05,0,0,0,.7-2c0-.17,0-.39,0-.66s0-.49,0-.66a3.05,3.05,0,0,0-.7-2,2.5,2.5,0,0,0-3.45,0,3,3,0,0,0-.69,2c0,.17,0,.39,0,.66s0,.49,0,.66a3,3,0,0,0,.69,2A2.25,2.25,0,0,0,407.38,270.36Z" transform="translate(0 0)"/><path class="cls-2" d="M418.18,260.8a.38.38,0,0,1-.4-.4v-.94a.44.44,0,0,1,.11-.29.42.42,0,0,1,.29-.11h1.09a.4.4,0,0,1,.29.11.39.39,0,0,1,.11.29v.94a.38.38,0,0,1-.11.29.4.4,0,0,1-.29.11Zm.14,10.73a.38.38,0,0,1-.4-.4v-8.24a.42.42,0,0,1,.11-.29.38.38,0,0,1,.29-.11h.83a.34.34,0,0,1,.28.11.42.42,0,0,1,.11.29v8.24a.42.42,0,0,1-.11.29.38.38,0,0,1-.28.11Z" transform="translate(0 0)"/><path class="cls-2" d="M422.53,271.53a.4.4,0,0,1-.29-.11.38.38,0,0,1-.11-.29v-8.24a.38.38,0,0,1,.11-.29.36.36,0,0,1,.29-.11h.81a.38.38,0,0,1,.4.4v.76a3.56,3.56,0,0,1,1.14-1,3.68,3.68,0,0,1,1.77-.38,3.56,3.56,0,0,1,1.92.5,3.11,3.11,0,0,1,1.19,1.37,4.87,4.87,0,0,1,.4,2.05v4.9a.46.46,0,0,1-.1.29.39.39,0,0,1-.28.11h-.87a.38.38,0,0,1-.4-.4v-4.82a2.84,2.84,0,0,0-.59-1.9,2.18,2.18,0,0,0-1.74-.69,2.26,2.26,0,0,0-1.73.69,2.63,2.63,0,0,0-.65,1.9v4.82a.38.38,0,0,1-.12.29.39.39,0,0,1-.28.11Z" transform="translate(0 0)"/><path class="cls-2" d="M440.09,271.53a3,3,0,0,1-1.58-.37,2.13,2.13,0,0,1-.89-1.07,4.19,4.19,0,0,1-.28-1.62v-4.59H436a.41.41,0,0,1-.4-.4v-.59a.38.38,0,0,1,.12-.29.36.36,0,0,1,.28-.11h1.36v-2.91a.39.39,0,0,1,.11-.28.38.38,0,0,1,.29-.12h.82a.4.4,0,0,1,.29.12.39.39,0,0,1,.11.28v2.91h2.15a.36.36,0,0,1,.29.11.38.38,0,0,1,.11.29v.59a.36.36,0,0,1-.11.28.37.37,0,0,1-.29.12H439v4.47a2.46,2.46,0,0,0,.28,1.28,1,1,0,0,0,1,.47h1.06a.4.4,0,0,1,.29.12.39.39,0,0,1,.11.28v.63a.42.42,0,0,1-.11.29.44.44,0,0,1-.29.11Z" transform="translate(0 0)"/><path class="cls-2" d="M443.77,271.53a.39.39,0,0,1-.28-.11.38.38,0,0,1-.11-.29V259.58a.36.36,0,0,1,.11-.28.36.36,0,0,1,.28-.12h.87a.38.38,0,0,1,.3.12.39.39,0,0,1,.1.28v4.05a3.77,3.77,0,0,1,1.15-.95,4,4,0,0,1,3.64.13,3.14,3.14,0,0,1,1.2,1.37,4.72,4.72,0,0,1,.41,2.05v4.9a.36.36,0,0,1-.4.4h-.87a.39.39,0,0,1-.28-.11.38.38,0,0,1-.12-.29v-4.82a2.79,2.79,0,0,0-.59-1.9,2.15,2.15,0,0,0-1.74-.69,2.29,2.29,0,0,0-1.73.69,2.59,2.59,0,0,0-.67,1.9v4.82a.36.36,0,0,1-.4.4Z" transform="translate(0 0)"/><path class="cls-2" d="M457.55,271.7a3.77,3.77,0,0,1-2.85-1.1,4.55,4.55,0,0,1-1.17-3c0-.15,0-.34,0-.58s0-.43,0-.58a5.23,5.23,0,0,1,.57-2.17,3.55,3.55,0,0,1,1.39-1.43,4,4,0,0,1,2.06-.51,4.1,4.1,0,0,1,2.21.56,3.53,3.53,0,0,1,1.37,1.58,5.81,5.81,0,0,1,.47,2.4v.3a.38.38,0,0,1-.11.29.44.44,0,0,1-.29.11h-6v.15a3.66,3.66,0,0,0,.32,1.33,2.39,2.39,0,0,0,.79,1,2.05,2.05,0,0,0,1.26.39,2.65,2.65,0,0,0,1-.19,2.74,2.74,0,0,0,.68-.43,3.5,3.5,0,0,0,.35-.36.83.83,0,0,1,.24-.27.66.66,0,0,1,.28,0H461a.41.41,0,0,1,.29.1.28.28,0,0,1,.09.27,1.35,1.35,0,0,1-.27.63,3.76,3.76,0,0,1-.75.74,4.5,4.5,0,0,1-1.18.6A5.23,5.23,0,0,1,457.55,271.7Zm-2.37-5.35H460v-.06a3.26,3.26,0,0,0-.29-1.39,2.35,2.35,0,0,0-.83-1,2.46,2.46,0,0,0-2.56,0,2.37,2.37,0,0,0-.81,1,3.26,3.26,0,0,0-.28,1.39Z" transform="translate(0 0)"/><path class="cls-2" d="M471.08,271.7a5.13,5.13,0,0,1-1.67-.24,3.73,3.73,0,0,1-1.13-.59,2.84,2.84,0,0,1-.66-.7,1.37,1.37,0,0,1-.23-.55.32.32,0,0,1,.12-.3.46.46,0,0,1,.28-.1h.76l.17,0a.66.66,0,0,1,.16.15c.16.16.32.32.51.49a2.28,2.28,0,0,0,.69.4,3,3,0,0,0,1,.15,2.79,2.79,0,0,0,1.46-.34,1.07,1.07,0,0,0,.58-1,1,1,0,0,0-.24-.69,2,2,0,0,0-.83-.47,14.46,14.46,0,0,0-1.65-.43,6.71,6.71,0,0,1-1.65-.6,2.32,2.32,0,0,1-.87-.86,2.4,2.4,0,0,1-.26-1.12,2.24,2.24,0,0,1,.39-1.24,2.71,2.71,0,0,1,1.12-1,3.93,3.93,0,0,1,1.85-.39,4.73,4.73,0,0,1,1.55.23,3.78,3.78,0,0,1,1.06.56,2.89,2.89,0,0,1,.62.67,1.3,1.3,0,0,1,.23.56.32.32,0,0,1-.11.29.4.4,0,0,1-.27.11h-.73a.37.37,0,0,1-.2-.05l-.15-.12a4.24,4.24,0,0,0-.41-.46,1.91,1.91,0,0,0-.61-.37,2.69,2.69,0,0,0-1-.15,2,2,0,0,0-1.31.37,1.14,1.14,0,0,0-.43.92,1,1,0,0,0,.19.59,1.67,1.67,0,0,0,.73.47,11.92,11.92,0,0,0,1.6.45,6,6,0,0,1,1.81.61,2.46,2.46,0,0,1,.94.89,2.4,2.4,0,0,1,.28,1.16,2.3,2.3,0,0,1-.43,1.34,2.83,2.83,0,0,1-1.25,1A5.29,5.29,0,0,1,471.08,271.7Z" transform="translate(0 0)"/><path class="cls-2" d="M480.41,271.7a3.8,3.8,0,0,1-2.85-1.1,4.54,4.54,0,0,1-1.16-3c0-.15,0-.34,0-.58s0-.43,0-.58a4.94,4.94,0,0,1,.57-2.17,3.59,3.59,0,0,1,1.38-1.43,4,4,0,0,1,2.06-.51,4.16,4.16,0,0,1,2.22.56,3.59,3.59,0,0,1,1.37,1.58,5.81,5.81,0,0,1,.47,2.4v.3a.36.36,0,0,1-.12.29.39.39,0,0,1-.28.11h-6v.15a3.65,3.65,0,0,0,.31,1.33,2.41,2.41,0,0,0,.8,1,2,2,0,0,0,1.25.39,2.66,2.66,0,0,0,1-.19,2.74,2.74,0,0,0,.68-.43,3.14,3.14,0,0,0,.34-.36,1,1,0,0,1,.25-.27.61.61,0,0,1,.27,0h.84a.41.41,0,0,1,.29.1.3.3,0,0,1,.09.27,1.28,1.28,0,0,1-.28.63,3.44,3.44,0,0,1-.74.74,4.42,4.42,0,0,1-1.19.6A5.14,5.14,0,0,1,480.41,271.7Zm-2.36-5.35h4.76v-.06a3.26,3.26,0,0,0-.28-1.39,2.42,2.42,0,0,0-.83-1,2.27,2.27,0,0,0-1.29-.36,2.21,2.21,0,0,0-1.27.36,2.23,2.23,0,0,0-.81,1,3.26,3.26,0,0,0-.28,1.39Z" transform="translate(0 0)"/><path class="cls-2" d="M490,271.53a3,3,0,0,1-1.58-.37,2.18,2.18,0,0,1-.89-1.07,4.39,4.39,0,0,1-.28-1.62v-4.59h-1.35a.37.37,0,0,1-.29-.12.36.36,0,0,1-.11-.28v-.59a.38.38,0,0,1,.11-.29.36.36,0,0,1,.29-.11h1.35v-2.91a.41.41,0,0,1,.4-.4h.82a.38.38,0,0,1,.29.12.39.39,0,0,1,.11.28v2.91h2.16a.36.36,0,0,1,.28.11.38.38,0,0,1,.12.29v.59a.41.41,0,0,1-.4.4H488.9v4.47a2.46,2.46,0,0,0,.28,1.28,1,1,0,0,0,1,.47h1.06a.38.38,0,0,1,.29.12.39.39,0,0,1,.11.28v.63a.38.38,0,0,1-.4.4Z" transform="translate(0 0)"/><path class="cls-2" d="M496.83,271.53a3,3,0,0,1-1.58-.37,2.13,2.13,0,0,1-.89-1.07,4.19,4.19,0,0,1-.28-1.62v-4.59h-1.35a.37.37,0,0,1-.29-.12.36.36,0,0,1-.11-.28v-.59a.38.38,0,0,1,.11-.29.36.36,0,0,1,.29-.11h1.35v-2.91a.39.39,0,0,1,.11-.28.4.4,0,0,1,.29-.12h.82a.4.4,0,0,1,.29.12.39.39,0,0,1,.11.28v2.91h2.15a.36.36,0,0,1,.29.11.38.38,0,0,1,.11.29v.59a.36.36,0,0,1-.11.28.37.37,0,0,1-.29.12H495.7v4.47a2.46,2.46,0,0,0,.28,1.28,1,1,0,0,0,1,.47H498a.4.4,0,0,1,.29.12.39.39,0,0,1,.11.28v.63a.42.42,0,0,1-.11.29.44.44,0,0,1-.29.11Z" transform="translate(0 0)"/><path class="cls-2" d="M500.36,260.8a.38.38,0,0,1-.4-.4v-.94a.44.44,0,0,1,.11-.29.42.42,0,0,1,.29-.11h1.09a.4.4,0,0,1,.29.11.39.39,0,0,1,.11.29v.94a.38.38,0,0,1-.11.29.4.4,0,0,1-.29.11Zm.14,10.73a.38.38,0,0,1-.4-.4v-8.24a.42.42,0,0,1,.11-.29.38.38,0,0,1,.29-.11h.83a.34.34,0,0,1,.28.11.41.41,0,0,1,.1.29v8.24a.41.41,0,0,1-.1.29.38.38,0,0,1-.28.11Z" transform="translate(0 0)"/><path class="cls-2" d="M504.71,271.53a.4.4,0,0,1-.29-.11.38.38,0,0,1-.11-.29v-8.24a.38.38,0,0,1,.11-.29.36.36,0,0,1,.29-.11h.81a.38.38,0,0,1,.4.4v.76a3.56,3.56,0,0,1,1.14-1,3.68,3.68,0,0,1,1.77-.38,3.56,3.56,0,0,1,1.92.5,3.11,3.11,0,0,1,1.19,1.37,4.87,4.87,0,0,1,.4,2.05v4.9a.46.46,0,0,1-.1.29.39.39,0,0,1-.28.11h-.87a.38.38,0,0,1-.4-.4v-4.82a2.84,2.84,0,0,0-.59-1.9,2.18,2.18,0,0,0-1.74-.69,2.26,2.26,0,0,0-1.73.69,2.63,2.63,0,0,0-.65,1.9v4.82a.38.38,0,0,1-.12.29.39.39,0,0,1-.28.11Z" transform="translate(0 0)"/><path class="cls-2" d="M518.55,275.35a5.08,5.08,0,0,1-1.94-.31,3.43,3.43,0,0,1-1.18-.75,2.89,2.89,0,0,1-.61-.89,2.43,2.43,0,0,1-.2-.71.33.33,0,0,1,.11-.29.42.42,0,0,1,.29-.12h.83a.42.42,0,0,1,.26.07.52.52,0,0,1,.18.29,3,3,0,0,0,.31.58,1.7,1.7,0,0,0,.64.56,2.56,2.56,0,0,0,1.22.24,3.89,3.89,0,0,0,1.37-.22,1.56,1.56,0,0,0,.85-.77,3.26,3.26,0,0,0,.28-1.5v-1.18a3.23,3.23,0,0,1-1.09.89,3.6,3.6,0,0,1-1.7.36,3.71,3.71,0,0,1-1.67-.34,3.05,3.05,0,0,1-1.14-.92,3.86,3.86,0,0,1-.66-1.33,6.69,6.69,0,0,1-.26-1.57c0-.32,0-.64,0-.95a6.69,6.69,0,0,1,.26-1.57,4,4,0,0,1,.66-1.34,3.08,3.08,0,0,1,1.14-.93,3.85,3.85,0,0,1,1.67-.34,3.42,3.42,0,0,1,1.72.39,3.79,3.79,0,0,1,1.13.95v-.75a.39.39,0,0,1,.11-.29.38.38,0,0,1,.29-.12h.8a.41.41,0,0,1,.41.41v8.44a5.23,5.23,0,0,1-.39,2.07,3,3,0,0,1-1.28,1.42A4.76,4.76,0,0,1,518.55,275.35Zm0-5.14a2.3,2.3,0,0,0,1.4-.4,2.37,2.37,0,0,0,.79-1,3.62,3.62,0,0,0,.26-1.24,5.26,5.26,0,0,0,0-.6,5.44,5.44,0,0,0,0-.6,3.62,3.62,0,0,0-.26-1.23,2.37,2.37,0,0,0-.79-1,2.3,2.3,0,0,0-1.4-.4,2.27,2.27,0,0,0-1.39.39,2.16,2.16,0,0,0-.75,1,5,5,0,0,0-.26,1.36c0,.31,0,.61,0,.93a5,5,0,0,0,.26,1.36,2.16,2.16,0,0,0,.75,1A2.27,2.27,0,0,0,518.51,270.21Z" transform="translate(0 0)"/><path class="cls-2" d="M528.35,271.7a5.21,5.21,0,0,1-1.67-.24,3.86,3.86,0,0,1-1.13-.59,2.79,2.79,0,0,1-.65-.7,1.37,1.37,0,0,1-.23-.55.32.32,0,0,1,.12-.3.44.44,0,0,1,.28-.1h.76l.17,0a.66.66,0,0,1,.16.15c.15.16.32.32.51.49a2.35,2.35,0,0,0,.68.4,3,3,0,0,0,1,.15,2.79,2.79,0,0,0,1.46-.34,1.09,1.09,0,0,0,.58-1,1,1,0,0,0-.24-.69,2.08,2.08,0,0,0-.83-.47,14.46,14.46,0,0,0-1.65-.43,6.71,6.71,0,0,1-1.65-.6,2.32,2.32,0,0,1-.87-.86,2.4,2.4,0,0,1-.26-1.12,2.31,2.31,0,0,1,.38-1.24,2.8,2.8,0,0,1,1.13-1,3.93,3.93,0,0,1,1.85-.39,4.73,4.73,0,0,1,1.55.23,3.78,3.78,0,0,1,1.06.56,3.13,3.13,0,0,1,.62.67,1.3,1.3,0,0,1,.23.56.34.34,0,0,1-.11.29.4.4,0,0,1-.27.11h-.73a.37.37,0,0,1-.2-.05l-.15-.12a5.65,5.65,0,0,0-.41-.46,1.91,1.91,0,0,0-.61-.37,2.69,2.69,0,0,0-1-.15A2,2,0,0,0,527,264a1.14,1.14,0,0,0-.43.92,1,1,0,0,0,.19.59,1.67,1.67,0,0,0,.73.47,11.92,11.92,0,0,0,1.6.45,6,6,0,0,1,1.81.61,2.46,2.46,0,0,1,.94.89,2.4,2.4,0,0,1,.28,1.16,2.3,2.3,0,0,1-.43,1.34,2.83,2.83,0,0,1-1.25,1A5.31,5.31,0,0,1,528.35,271.7Z" transform="translate(0 0)"/><path class="cls-2" d="M541.52,271.53a3,3,0,0,1-1.58-.37,2.13,2.13,0,0,1-.89-1.07,4.19,4.19,0,0,1-.28-1.62v-4.59h-1.36a.41.41,0,0,1-.4-.4v-.59a.38.38,0,0,1,.12-.29.36.36,0,0,1,.28-.11h1.36v-2.91a.39.39,0,0,1,.11-.28.38.38,0,0,1,.29-.12H540a.41.41,0,0,1,.4.4v2.91h2.15a.38.38,0,0,1,.4.4v.59a.36.36,0,0,1-.11.28.38.38,0,0,1-.29.12h-2.15v4.47a2.46,2.46,0,0,0,.28,1.28,1,1,0,0,0,1,.47h1.06a.41.41,0,0,1,.4.4v.63a.38.38,0,0,1-.12.29.39.39,0,0,1-.28.11Z" transform="translate(0 0)"/><path class="cls-2" d="M548.49,271.7a4.38,4.38,0,0,1-2.21-.5,3.37,3.37,0,0,1-1.35-1.4,4.81,4.81,0,0,1-.53-2c0-.2,0-.45,0-.76s0-.55,0-.74a4.89,4.89,0,0,1,.53-2.05,3.46,3.46,0,0,1,1.37-1.39,5,5,0,0,1,4.38,0,3.46,3.46,0,0,1,1.37,1.39,4.74,4.74,0,0,1,.53,2.05c0,.19,0,.43,0,.74s0,.56,0,.76a5,5,0,0,1-.52,2,3.46,3.46,0,0,1-1.36,1.4A4.38,4.38,0,0,1,548.49,271.7Zm0-1.34a2.23,2.23,0,0,0,1.72-.68,3.05,3.05,0,0,0,.7-2c0-.17,0-.39,0-.66s0-.49,0-.66a3.05,3.05,0,0,0-.7-2,2.24,2.24,0,0,0-1.72-.69,2.27,2.27,0,0,0-1.73.69,3,3,0,0,0-.69,2c0,.17,0,.39,0,.66s0,.49,0,.66a3,3,0,0,0,.69,2A2.27,2.27,0,0,0,548.49,270.36Z" transform="translate(0 0)"/><path class="cls-2" d="M562.68,271.7a4.46,4.46,0,0,1-2.13-.48,3.2,3.2,0,0,1-1.38-1.37,4.61,4.61,0,0,1-.52-2.15,6.66,6.66,0,0,1,0-.69,7,7,0,0,1,0-.7,4.57,4.57,0,0,1,.52-2.14,3.28,3.28,0,0,1,1.38-1.38,4.46,4.46,0,0,1,2.13-.48,4.94,4.94,0,0,1,1.73.28,3.72,3.72,0,0,1,1.19.71,3.24,3.24,0,0,1,.71.94,2.63,2.63,0,0,1,.25,1,.31.31,0,0,1-.11.28.43.43,0,0,1-.29.1h-.84a.35.35,0,0,1-.26-.08.78.78,0,0,1-.17-.27A2.39,2.39,0,0,0,564,264a2.45,2.45,0,0,0-1.34-.34,2.32,2.32,0,0,0-1.7.64,3,3,0,0,0-.7,2.07c0,.42,0,.82,0,1.22a2.94,2.94,0,0,0,.7,2.07,2.32,2.32,0,0,0,1.7.64A2.45,2.45,0,0,0,564,270a2.3,2.3,0,0,0,.85-1.2.78.78,0,0,1,.17-.27.4.4,0,0,1,.26-.08h.84a.44.44,0,0,1,.29.11.31.31,0,0,1,.11.28,2.52,2.52,0,0,1-.16.74,2.8,2.8,0,0,1-.44.78,3.37,3.37,0,0,1-.76.69,3.53,3.53,0,0,1-1.09.49A5.23,5.23,0,0,1,562.68,271.7Z" transform="translate(0 0)"/><path class="cls-2" d="M569,271.53a.39.39,0,0,1-.28-.11.38.38,0,0,1-.12-.29V259.58a.41.41,0,0,1,.4-.4h.87a.38.38,0,0,1,.3.12.39.39,0,0,1,.1.28v4.05a3.77,3.77,0,0,1,1.15-.95,4,4,0,0,1,3.64.13,3.14,3.14,0,0,1,1.2,1.37,4.72,4.72,0,0,1,.41,2.05v4.9a.36.36,0,0,1-.4.4h-.87a.39.39,0,0,1-.28-.11.38.38,0,0,1-.12-.29v-4.82a2.79,2.79,0,0,0-.59-1.9,2.15,2.15,0,0,0-1.74-.69,2.31,2.31,0,0,0-1.74.69,2.63,2.63,0,0,0-.66,1.9v4.82a.36.36,0,0,1-.4.4Z" transform="translate(0 0)"/><path class="cls-2" d="M581.74,271.7a3.55,3.55,0,0,1-1.58-.34,3.15,3.15,0,0,1-1.15-.94,2.22,2.22,0,0,1-.44-1.34,2.24,2.24,0,0,1,1-1.91,5.51,5.51,0,0,1,2.54-.94l2.59-.37v-.5a1.76,1.76,0,0,0-.48-1.31,2.19,2.19,0,0,0-1.56-.47,2.26,2.26,0,0,0-1.26.32,1.63,1.63,0,0,0-.67.8.37.37,0,0,1-.36.26h-.79a.34.34,0,0,1-.28-.12.36.36,0,0,1-.1-.27,1.53,1.53,0,0,1,.2-.64,2.74,2.74,0,0,1,.62-.75,3.42,3.42,0,0,1,1.07-.61,4.34,4.34,0,0,1,1.59-.26,5,5,0,0,1,1.76.27,2.93,2.93,0,0,1,1.12.72,2.88,2.88,0,0,1,.59,1,3.86,3.86,0,0,1,.18,1.17v5.63a.38.38,0,0,1-.4.4h-.8a.38.38,0,0,1-.29-.11.42.42,0,0,1-.11-.29v-.75a3,3,0,0,1-.61.62,3.15,3.15,0,0,1-1,.5A4.2,4.2,0,0,1,581.74,271.7Zm.36-1.3a2.75,2.75,0,0,0,1.31-.31,2.17,2.17,0,0,0,.93-.94,3.53,3.53,0,0,0,.34-1.62V267l-2,.3a4.63,4.63,0,0,0-1.86.58,1.21,1.21,0,0,0-.63,1,1.16,1.16,0,0,0,.29.8,1.61,1.61,0,0,0,.73.48A2.61,2.61,0,0,0,582.1,270.4Z" transform="translate(0 0)"/><path class="cls-2" d="M589.21,271.53a.39.39,0,0,1-.28-.11.38.38,0,0,1-.11-.29v-8.24a.38.38,0,0,1,.11-.29.36.36,0,0,1,.28-.11H590a.38.38,0,0,1,.29.11.42.42,0,0,1,.11.29v.76a3.56,3.56,0,0,1,1.14-1,3.68,3.68,0,0,1,1.77-.38,3.56,3.56,0,0,1,1.92.5,3.11,3.11,0,0,1,1.19,1.37,4.87,4.87,0,0,1,.4,2.05v4.9a.42.42,0,0,1-.11.29.37.37,0,0,1-.27.11h-.87a.4.4,0,0,1-.29-.11.38.38,0,0,1-.11-.29v-4.82a2.84,2.84,0,0,0-.59-1.9,2.18,2.18,0,0,0-1.74-.69,2.26,2.26,0,0,0-1.73.69,2.63,2.63,0,0,0-.66,1.9v4.82a.38.38,0,0,1-.11.29.4.4,0,0,1-.29.11Z" transform="translate(0 0)"/><path class="cls-2" d="M603.06,275.35a5.08,5.08,0,0,1-1.94-.31,3.43,3.43,0,0,1-1.18-.75,2.89,2.89,0,0,1-.61-.89,2.43,2.43,0,0,1-.2-.71.33.33,0,0,1,.11-.29.42.42,0,0,1,.29-.12h.83a.42.42,0,0,1,.26.07.52.52,0,0,1,.18.29,3,3,0,0,0,.31.58,1.7,1.7,0,0,0,.64.56A2.56,2.56,0,0,0,603,274a3.89,3.89,0,0,0,1.37-.22,1.6,1.6,0,0,0,.85-.77,3.26,3.26,0,0,0,.28-1.5v-1.18a3.23,3.23,0,0,1-1.09.89,3.61,3.61,0,0,1-1.71.36,3.77,3.77,0,0,1-1.67-.34,3.1,3.1,0,0,1-1.13-.92,3.86,3.86,0,0,1-.66-1.33,6.69,6.69,0,0,1-.26-1.57c0-.32,0-.64,0-.95a6.69,6.69,0,0,1,.26-1.57,4,4,0,0,1,.66-1.34,3.13,3.13,0,0,1,1.13-.93,3.92,3.92,0,0,1,1.67-.34,3.43,3.43,0,0,1,1.73.39,3.79,3.79,0,0,1,1.13.95v-.75a.39.39,0,0,1,.11-.29.37.37,0,0,1,.29-.12h.8a.41.41,0,0,1,.41.41v8.44a5.23,5.23,0,0,1-.39,2.07,3,3,0,0,1-1.28,1.42A4.76,4.76,0,0,1,603.06,275.35Zm0-5.14a2.3,2.3,0,0,0,1.4-.4,2.37,2.37,0,0,0,.79-1,3.62,3.62,0,0,0,.26-1.24,5.26,5.26,0,0,0,0-.6,5.44,5.44,0,0,0,0-.6,3.62,3.62,0,0,0-.26-1.23,2.37,2.37,0,0,0-.79-1,2.3,2.3,0,0,0-1.4-.4,2.27,2.27,0,0,0-1.39.39,2.16,2.16,0,0,0-.75,1,5,5,0,0,0-.26,1.36c0,.31,0,.61,0,.93a5,5,0,0,0,.26,1.36,2.16,2.16,0,0,0,.75,1A2.27,2.27,0,0,0,603,270.21Z" transform="translate(0 0)"/><path class="cls-2" d="M613.33,271.7a3.8,3.8,0,0,1-2.85-1.1,4.54,4.54,0,0,1-1.16-3,8.42,8.42,0,0,1,0-1.16,4.94,4.94,0,0,1,.57-2.17,3.59,3.59,0,0,1,1.38-1.43,4,4,0,0,1,2.06-.51,4.16,4.16,0,0,1,2.22.56,3.59,3.59,0,0,1,1.37,1.58,5.81,5.81,0,0,1,.47,2.4v.3a.36.36,0,0,1-.12.29.39.39,0,0,1-.28.11h-6v.15a3.65,3.65,0,0,0,.31,1.33,2.41,2.41,0,0,0,.8,1,2,2,0,0,0,1.25.39,2.66,2.66,0,0,0,1-.19,2.5,2.5,0,0,0,.67-.43,2.66,2.66,0,0,0,.35-.36,1,1,0,0,1,.25-.27.61.61,0,0,1,.27,0h.84a.41.41,0,0,1,.29.1.3.3,0,0,1,.09.27,1.28,1.28,0,0,1-.28.63,3.44,3.44,0,0,1-.74.74,4.42,4.42,0,0,1-1.19.6A5.14,5.14,0,0,1,613.33,271.7ZM611,266.35h4.76v-.06a3.26,3.26,0,0,0-.28-1.39,2.42,2.42,0,0,0-.83-1,2.27,2.27,0,0,0-1.29-.36,2.18,2.18,0,0,0-1.27.36,2.23,2.23,0,0,0-.81,1,3.26,3.26,0,0,0-.28,1.39Z" transform="translate(0 0)"/><path class="cls-2" d="M624,260.8a.39.39,0,0,1-.28-.11.38.38,0,0,1-.12-.29v-.94a.4.4,0,0,1,.12-.29.39.39,0,0,1,.28-.11h1.1a.38.38,0,0,1,.4.4v.94a.42.42,0,0,1-.11.29.44.44,0,0,1-.29.11Zm.14,10.73a.44.44,0,0,1-.29-.11.42.42,0,0,1-.11-.29v-8.24a.42.42,0,0,1,.11-.29.39.39,0,0,1,.29-.11H625a.36.36,0,0,1,.28.11.46.46,0,0,1,.1.29v8.24a.46.46,0,0,1-.1.29.39.39,0,0,1-.28.11Z" transform="translate(0 0)"/><path class="cls-2" d="M631.47,271.53a3,3,0,0,1-1.58-.37,2.18,2.18,0,0,1-.89-1.07,4.39,4.39,0,0,1-.28-1.62v-4.59h-1.35a.37.37,0,0,1-.29-.12.36.36,0,0,1-.11-.28v-.59a.38.38,0,0,1,.11-.29.36.36,0,0,1,.29-.11h1.35v-2.91a.41.41,0,0,1,.4-.4h.82a.38.38,0,0,1,.29.12.39.39,0,0,1,.11.28v2.91h2.16a.36.36,0,0,1,.28.11.38.38,0,0,1,.12.29v.59a.41.41,0,0,1-.4.4h-2.16v4.47a2.46,2.46,0,0,0,.28,1.28,1,1,0,0,0,1,.47h1.06a.38.38,0,0,1,.29.12.39.39,0,0,1,.11.28v.63a.38.38,0,0,1-.4.4Z" transform="translate(0 0)"/></svg>